STARTFONT 2.1
COMMENT Copyright (C) 1990-1991 EWT Consulting
COMMENT Portions Copyright (C) 1994-1995 Cronyx Ltd.
COMMENT Changes Copyright (C) 1996 by Andrey A. Chernov, Moscow, Russia.
COMMENT Modified by Serge Vakulenko, <vak@cronyx.ru>
COMMENT This software may be used, modified, copied, distributed, and sold,
COMMENT in both source and binary form provided that the copyright
COMMENT and these terms are retained. Under no circumstances is the author
COMMENT responsible for the proper functioning of this software, nor does
COMMENT the author assume any responsibility for damages incurred with its use.
COMMENT $XFree86: xc/fonts/bdf/cyrillic/crox2cbo.bdf,v 3.2 1996/09/01 12:17:57 dawes Exp $
FONT -Cronyx-Courier-Bold-O-Normal--17-120-100-100-M-90-KOI8-R
SIZE 12 96 96
FONTBOUNDINGBOX 15 16 -1 -3
STARTPROPERTIES 19
DEFAULT_CHAR 32
FONT_ASCENT 13
FONT_DESCENT 3
SPACING "M"
FONTNAME_REGISTRY ""
FOUNDRY "Cronyx"
FAMILY_NAME "Courier"
WEIGHT_NAME "Bold"
SLANT "O"
SETWIDTH_NAME "Normal"
ADD_STYLE_NAME ""
AVERAGE_WIDTH 90
CHARSET_REGISTRY "KOI8"
CHARSET_ENCODING "R"
PIXEL_SIZE 17
POINT_SIZE 120
RESOLUTION_X 100
RESOLUTION_Y 100
COPYRIGHT "Copyright (C) 1990, 1991 EWT Consulting, Portions Copyright (C) 1994 Cronyx Ltd., Portions Copyright (C) 1996 by Andrey A. Chernov, Moscow, Russia."
ENDPROPERTIES
CHARS 224
STARTCHAR space
ENCODING 32
SWIDTH 625 0
DWIDTH 10 0
BBX 15 16 -1 -3
BITMAP
0000
0000
0000
0000
0000
0000
0000
0000
0000
0000
0000
0000
0000
0000
0000
0000
ENDCHAR
STARTCHAR exclam
ENCODING 33
SWIDTH 625 0
DWIDTH 10 0
BBX 15 16 -1 -3
BITMAP
0000
0000
0000
0060
00C0
00C0
00C0
0180
0180
0180
0300
0000
0300
0000
0000
0000
ENDCHAR
STARTCHAR quotedbl
ENCODING 34
SWIDTH 625 0
DWIDTH 10 0
BBX 15 16 -1 -3
BITMAP
0000
0000
0000
00D8
01B0
01B0
01B0
0000
0000
0000
0000
0000
0000
0000
0000
0000
ENDCHAR
STARTCHAR numbersign
ENCODING 35
SWIDTH 625 0
DWIDTH 10 0
BBX 15 16 -1 -3
BITMAP
0000
0000
0000
006C
00D8
00D8
03FC
0360
0360
0FF0
0D80
0D80
0D80
0000
0000
0000
ENDCHAR
STARTCHAR dollar
ENCODING 36
SWIDTH 625 0
DWIDTH 10 0
BBX 15 16 -1 -3
BITMAP
0000
0000
0000
0060
03F0
0618
0600
0C00
07E0
0030
0060
1860
0FC0
0600
0600
0000
ENDCHAR
STARTCHAR percent
ENCODING 37
SWIDTH 625 0
DWIDTH 10 0
BBX 15 16 -1 -3
BITMAP
0000
0000
0000
01C0
06CC
0398
0030
00C0
0180
0300
0CE0
19B0
00E0
0000
0000
0000
ENDCHAR
STARTCHAR ampersand
ENCODING 38
SWIDTH 625 0
DWIDTH 10 0
BBX 15 16 -1 -3
BITMAP
0000
0000
0000
00F0
0330
0300
0300
0300
0780
0CD8
18E0
18E0
0FB0
0000
0000
0000
ENDCHAR
STARTCHAR quoteright
ENCODING 39
SWIDTH 625 0
DWIDTH 10 0
BBX 15 16 -1 -3
BITMAP
0000
0000
0000
0060
00C0
00C0
00C0
0000
0000
0000
0000
0000
0000
0000
0000
0000
ENDCHAR
STARTCHAR parenleft
ENCODING 40
SWIDTH 625 0
DWIDTH 10 0
BBX 15 16 -1 -3
BITMAP
0000
0000
0000
0018
0060
0060
00C0
0180
0180
0180
0300
0300
0300
0300
0300
0180
ENDCHAR
STARTCHAR parenright
ENCODING 41
SWIDTH 625 0
DWIDTH 10 0
BBX 15 16 -1 -3
BITMAP
0000
0000
0000
00C0
00C0
00C0
0060
00C0
00C0
00C0
0180
0180
0180
0600
0600
0C00
ENDCHAR
STARTCHAR asterisk
ENCODING 42
SWIDTH 625 0
DWIDTH 10 0
BBX 15 16 -1 -3
BITMAP
0000
0000
0000
0000
0000
03F0
01E0
0FF0
03C0
07E0
0000
0000
0000
0000
0000
0000
ENDCHAR
STARTCHAR plus
ENCODING 43
SWIDTH 625 0
DWIDTH 10 0
BBX 15 16 -1 -3
BITMAP
0000
0000
0000
0000
0000
00C0
00C0
0180
0FF0
0180
0300
0300
0000
0000
0000
0000
ENDCHAR
STARTCHAR comma
ENCODING 44
SWIDTH 625 0
DWIDTH 10 0
BBX 15 16 -1 -3
BITMAP
0000
0000
0000
0000
0000
0000
0000
0000
0000
0000
0000
03C0
0380
0E00
0000
0000
ENDCHAR
STARTCHAR minus
ENCODING 45
SWIDTH 625 0
DWIDTH 10 0
BBX 15 16 -1 -3
BITMAP
0000
0000
0000
0000
0000
0000
0000
0000
07F0
0000
0000
0000
0000
0000
0000
0000
ENDCHAR
STARTCHAR period
ENCODING 46
SWIDTH 625 0
DWIDTH 10 0
BBX 15 16 -1 -3
BITMAP
0000
0000
0000
0000
0000
0000
0000
0000
0000
0000
0000
0380
0380
0000
0000
0000
ENDCHAR
STARTCHAR slash
ENCODING 47
SWIDTH 625 0
DWIDTH 10 0
BBX 15 16 -1 -3
BITMAP
0000
0000
0000
0000
000C
0018
0030
00C0
0180
0300
0C00
1800
0000
0000
0000
0000
ENDCHAR
STARTCHAR zero
ENCODING 48
SWIDTH 625 0
DWIDTH 10 0
BBX 15 16 -1 -3
BITMAP
0000
0000
0000
00F8
0318
0318
0318
0630
0630
0630
0C60
0C60
07C0
0000
0000
0000
ENDCHAR
STARTCHAR one
ENCODING 49
SWIDTH 625 0
DWIDTH 10 0
BBX 15 16 -1 -3
BITMAP
0000
0000
0000
0030
01E0
0060
0060
00C0
00C0
00C0
0180
0180
07E0
0000
0000
0000
ENDCHAR
STARTCHAR two
ENCODING 50
SWIDTH 625 0
DWIDTH 10 0
BBX 15 16 -1 -3
BITMAP
0000
0000
0000
00F8
0318
0018
0018
0060
00C0
0180
0600
0C00
0FE0
0000
0000
0000
ENDCHAR
STARTCHAR three
ENCODING 51
SWIDTH 625 0
DWIDTH 10 0
BBX 15 16 -1 -3
BITMAP
0000
0000
0000
00F8
0318
0018
0018
01E0
0030
0030
0060
0C60
07C0
0000
0000
0000
ENDCHAR
STARTCHAR four
ENCODING 52
SWIDTH 625 0
DWIDTH 10 0
BBX 15 16 -1 -3
BITMAP
0000
0000
0000
0018
0070
00F0
00F0
0360
0660
07F0
00C0
00C0
01E0
0000
0000
0000
ENDCHAR
STARTCHAR five
ENCODING 53
SWIDTH 625 0
DWIDTH 10 0
BBX 15 16 -1 -3
BITMAP
0000
0000
0000
01FC
0300
0300
0300
07E0
0030
0030
0060
0C60
07C0
0000
0000
0000
ENDCHAR
STARTCHAR six
ENCODING 54
SWIDTH 625 0
DWIDTH 10 0
BBX 15 16 -1 -3
BITMAP
0000
0000
0000
0078
0180
0300
0300
07E0
0730
0630
0C60
0C60
07C0
0000
0000
0000
ENDCHAR
STARTCHAR seven
ENCODING 55
SWIDTH 625 0
DWIDTH 10 0
BBX 15 16 -1 -3
BITMAP
0000
0000
0000
01FC
0318
0030
0030
00C0
00C0
0180
0300
0600
0600
0000
0000
0000
ENDCHAR
STARTCHAR eight
ENCODING 56
SWIDTH 625 0
DWIDTH 10 0
BBX 15 16 -1 -3
BITMAP
0000
0000
0000
00F8
0318
0318
0318
03E0
0630
0630
0C60
0C60
07C0
0000
0000
0000
ENDCHAR
STARTCHAR nine
ENCODING 57
SWIDTH 625 0
DWIDTH 10 0
BBX 15 16 -1 -3
BITMAP
0000
0000
0000
00F8
0318
0318
0318
0670
03F0
0030
0060
00C0
0780
0000
0000
0000
ENDCHAR
STARTCHAR colon
ENCODING 58
SWIDTH 625 0
DWIDTH 10 0
BBX 15 16 -1 -3
BITMAP
0000
0000
0000
0000
0000
0000
00E0
01C0
0000
0000
0000
0380
0380
0000
0000
0000
ENDCHAR
STARTCHAR semicolon
ENCODING 59
SWIDTH 625 0
DWIDTH 10 0
BBX 15 16 -1 -3
BITMAP
0000
0000
0000
0000
0000
0000
00E0
01C0
0000
0000
0000
03C0
0380
0E00
0000
0000
ENDCHAR
STARTCHAR less
ENCODING 60
SWIDTH 625 0
DWIDTH 10 0
BBX 15 16 -1 -3
BITMAP
0000
0000
0000
0000
0030
0060
00C0
0300
0600
0300
0300
0180
00C0
0000
0000
0000
ENDCHAR
STARTCHAR equal
ENCODING 61
SWIDTH 625 0
DWIDTH 10 0
BBX 15 16 -1 -3
BITMAP
0000
0000
0000
0000
0000
0000
0000
07F0
0000
07F0
0000
0000
0000
0000
0000
0000
ENDCHAR
STARTCHAR greater
ENCODING 62
SWIDTH 625 0
DWIDTH 10 0
BBX 15 16 -1 -3
BITMAP
0000
0000
0000
0000
0300
0180
00C0
00C0
0060
00C0
0300
0600
0C00
0000
0000
0000
ENDCHAR
STARTCHAR question
ENCODING 63
SWIDTH 625 0
DWIDTH 10 0
BBX 15 16 -1 -3
BITMAP
0000
0000
0000
00F8
0318
0018
0018
0060
00C0
0180
0300
0000
0300
0000
0000
0000
ENDCHAR
STARTCHAR at
ENCODING 64
SWIDTH 625 0
DWIDTH 10 0
BBX 15 16 -1 -3
BITMAP
0000
0000
0000
00F8
0318
060C
06FC
0F78
0F78
0F78
1BE0
1800
0C00
0FC0
0000
0000
ENDCHAR
STARTCHAR A
ENCODING 65
SWIDTH 625 0
DWIDTH 10 0
BBX 15 16 -1 -3
BITMAP
0000
0000
0000
01E0
00C0
01E0
01E0
0660
0660
07E0
1860
1860
3CF0
0000
0000
0000
ENDCHAR
STARTCHAR B
ENCODING 66
SWIDTH 625 0
DWIDTH 10 0
BBX 15 16 -1 -3
BITMAP
0000
0000
0000
03F8
0318
0318
0318
07E0
0630
0630
0C60
0C60
1FC0
0000
0000
0000
ENDCHAR
STARTCHAR C
ENCODING 67
SWIDTH 625 0
DWIDTH 10 0
BBX 15 16 -1 -3
BITMAP
0000
0000
0000
00FC
0338
0618
0618
0C00
0C00
0C00
1800
0C60
07C0
0000
0000
0000
ENDCHAR
STARTCHAR D
ENCODING 68
SWIDTH 625 0
DWIDTH 10 0
BBX 15 16 -1 -3
BITMAP
0000
0000
0000
03F0
0330
0318
0318
0630
0630
0630
0C60
0CC0
1F80
0000
0000
0000
ENDCHAR
STARTCHAR E
ENCODING 69
SWIDTH 625 0
DWIDTH 10 0
BBX 15 16 -1 -3
BITMAP
0000
0000
0000
03FC
0318
0300
0360
07C0
06C0
0600
0C00
0C60
1FE0
0000
0000
0000
ENDCHAR
STARTCHAR F
ENCODING 70
SWIDTH 625 0
DWIDTH 10 0
BBX 15 16 -1 -3
BITMAP
0000
0000
0000
03FC
0318
0300
0360
07C0
06C0
0600
0C00
0C00
1F00
0000
0000
0000
ENDCHAR
STARTCHAR G
ENCODING 71
SWIDTH 625 0
DWIDTH 10 0
BBX 15 16 -1 -3
BITMAP
0000
0000
0000
00FC
0338
0618
0618
0C00
0CF8
0C30
1860
0C60
07C0
0000
0000
0000
ENDCHAR
STARTCHAR H
ENCODING 72
SWIDTH 625 0
DWIDTH 10 0
BBX 15 16 -1 -3
BITMAP
0000
0000
0000
079E
0618
0618
0618
0FF0
0C30
0C30
1860
1860
3CF0
0000
0000
0000
ENDCHAR
STARTCHAR I
ENCODING 73
SWIDTH 625 0
DWIDTH 10 0
BBX 15 16 -1 -3
BITMAP
0000
0000
0000
01F8
00C0
00C0
00C0
0180
0180
0180
0300
0300
0FC0
0000
0000
0000
ENDCHAR
STARTCHAR J
ENCODING 74
SWIDTH 625 0
DWIDTH 10 0
BBX 15 16 -1 -3
BITMAP
0000
0000
0000
007E
0030
0030
0030
0060
0060
0060
18C0
18C0
0F80
0000
0000
0000
ENDCHAR
STARTCHAR K
ENCODING 75
SWIDTH 625 0
DWIDTH 10 0
BBX 15 16 -1 -3
BITMAP
0000
0000
0000
03FC
0330
0360
0360
0780
0780
06C0
0CC0
0C60
1E70
0000
0000
0000
ENDCHAR
STARTCHAR L
ENCODING 76
SWIDTH 625 0
DWIDTH 10 0
BBX 15 16 -1 -3
BITMAP
0000
0000
0000
03E0
0300
0300
0300
0600
0600
0600
0C00
0C60
1FE0
0000
0000
0000
ENDCHAR
STARTCHAR M
ENCODING 77
SWIDTH 625 0
DWIDTH 10 0
BBX 15 16 -1 -3
BITMAP
0000
0000
0000
070E
0618
0738
0738
0FF0
0FF0
0DB0
1B60
1860
3CF0
0000
0000
0000
ENDCHAR
STARTCHAR N
ENCODING 78
SWIDTH 625 0
DWIDTH 10 0
BBX 15 16 -1 -3
BITMAP
0000
0000
0000
073E
0618
0718
0798
0F30
0DB0
0CF0
19E0
18E0
3E60
0000
0000
0000
ENDCHAR
STARTCHAR O
ENCODING 79
SWIDTH 625 0
DWIDTH 10 0
BBX 15 16 -1 -3
BITMAP
0000
0000
0000
00F0
0330
0618
0618
0C30
0C30
0C30
1860
0CC0
0780
0000
0000
0000
ENDCHAR
STARTCHAR P
ENCODING 80
SWIDTH 625 0
DWIDTH 10 0
BBX 15 16 -1 -3
BITMAP
0000
0000
0000
03F8
0318
0318
0318
0630
07E0
0600
0C00
0C00
1F00
0000
0000
0000
ENDCHAR
STARTCHAR Q
ENCODING 81
SWIDTH 625 0
DWIDTH 10 0
BBX 15 16 -1 -3
BITMAP
0000
0000
0000
00F0
0330
0618
0618
0C30
0C30
0C30
1860
0CC0
0780
0700
1DC0
0000
ENDCHAR
STARTCHAR R
ENCODING 82
SWIDTH 625 0
DWIDTH 10 0
BBX 15 16 -1 -3
BITMAP
0000
0000
0000
03F8
0318
0318
0318
0630
07E0
06C0
0CC0
0C60
1E70
0000
0000
0000
ENDCHAR
STARTCHAR S
ENCODING 83
SWIDTH 625 0
DWIDTH 10 0
BBX 15 16 -1 -3
BITMAP
0000
0000
0000
01FC
0638
0618
0600
0780
00E0
0030
1860
1C60
1FC0
0000
0000
0000
ENDCHAR
STARTCHAR T
ENCODING 84
SWIDTH 625 0
DWIDTH 10 0
BBX 15 16 -1 -3
BITMAP
0000
0000
0000
07FE
08CC
00C0
00C0
0180
0180
0180
0300
0300
0FC0
0000
0000
0000
ENDCHAR
STARTCHAR U
ENCODING 85
SWIDTH 625 0
DWIDTH 10 0
BBX 15 16 -1 -3
BITMAP
0000
0000
0000
079E
0618
0618
0618
0C30
0C30
0C30
1860
1CE0
0780
0000
0000
0000
ENDCHAR
STARTCHAR V
ENCODING 86
SWIDTH 625 0
DWIDTH 10 0
BBX 15 16 -1 -3
BITMAP
0000
0000
0000
079E
0618
0618
0330
0660
0660
03C0
0780
0300
0300
0000
0000
0000
ENDCHAR
STARTCHAR W
ENCODING 87
SWIDTH 625 0
DWIDTH 10 0
BBX 15 16 -1 -3
BITMAP
0000
0000
0000
070E
080C
08CC
08CC
0FF0
0FF0
0FF0
0CC0
0CC0
0CC0
0000
0000
0000
ENDCHAR
STARTCHAR X
ENCODING 88
SWIDTH 625 0
DWIDTH 10 0
BBX 15 16 -1 -3
BITMAP
0000
0000
0000
079E
0618
0330
01E0
0180
0180
03C0
0CC0
1860
3CF0
0000
0000
0000
ENDCHAR
STARTCHAR Y
ENCODING 89
SWIDTH 625 0
DWIDTH 10 0
BBX 15 16 -1 -3
BITMAP
0000
0000
0000
079E
0618
0330
0330
03C0
0180
0180
0300
0300
0FC0
0000
0000
0000
ENDCHAR
STARTCHAR Z
ENCODING 90
SWIDTH 625 0
DWIDTH 10 0
BBX 15 16 -1 -3
BITMAP
0000
0000
0000
03FC
0618
0030
0060
0180
0180
0300
0C00
1860
1FE0
0000
0000
0000
ENDCHAR
STARTCHAR bracketleft
ENCODING 91
SWIDTH 625 0
DWIDTH 10 0
BBX 15 16 -1 -3
BITMAP
0000
0000
0000
0078
00C0
00C0
00C0
0180
0180
0180
0300
0300
0300
0600
0600
0780
ENDCHAR
STARTCHAR backslash
ENCODING 92
SWIDTH 625 0
DWIDTH 10 0
BBX 15 16 -1 -3
BITMAP
0000
0000
0000
0000
0600
0300
0180
0180
00C0
0060
0060
0030
0000
0000
0000
0000
ENDCHAR
STARTCHAR bracketright
ENCODING 93
SWIDTH 625 0
DWIDTH 10 0
BBX 15 16 -1 -3
BITMAP
0000
0000
0000
00F0
0060
0060
0060
00C0
00C0
00C0
0180
0180
0180
0300
0300
0F00
ENDCHAR
STARTCHAR asciicircum
ENCODING 94
SWIDTH 625 0
DWIDTH 10 0
BBX 15 16 -1 -3
BITMAP
0000
0000
0000
0060
01E0
0330
0618
0000
0000
0000
0000
0000
0000
0000
0000
0000
ENDCHAR
STARTCHAR underscore
ENCODING 95
SWIDTH 625 0
DWIDTH 10 0
BBX 15 16 -1 -3
BITMAP
0000
0000
0000
0000
0000
0000
0000
0000
0000
0000
0000
0000
0000
0000
7FE0
0000
ENDCHAR
STARTCHAR quoteleft
ENCODING 96
SWIDTH 625 0
DWIDTH 10 0
BBX 15 16 -1 -3
BITMAP
0000
0000
0000
00C0
00C0
0000
0000
0000
0000
0000
0000
0000
0000
0000
0000
0000
ENDCHAR
STARTCHAR a
ENCODING 97
SWIDTH 625 0
DWIDTH 10 0
BBX 15 16 -1 -3
BITMAP
0000
0000
0000
0000
0000
0000
03E0
0060
07E0
0C60
18C0
18C0
0FE0
0000
0000
0000
ENDCHAR
STARTCHAR b
ENCODING 98
SWIDTH 625 0
DWIDTH 10 0
BBX 15 16 -1 -3
BITMAP
0000
0000
0000
0380
0300
0300
03E0
0770
0630
0630
0C60
0EE0
1F80
0000
0000
0000
ENDCHAR
STARTCHAR c
ENCODING 99
SWIDTH 625 0
DWIDTH 10 0
BBX 15 16 -1 -3
BITMAP
0000
0000
0000
0000
0000
0000
01F8
0E70
0C00
0C00
1800
1CE0
0780
0000
0000
0000
ENDCHAR
STARTCHAR d
ENCODING 100
SWIDTH 625 0
DWIDTH 10 0
BBX 15 16 -1 -3
BITMAP
0000
0000
0000
0038
0030
0030
01F0
0EE0
0C60
0C60
18C0
1DC0
07E0
0000
0000
0000
ENDCHAR
STARTCHAR e
ENCODING 101
SWIDTH 625 0
DWIDTH 10 0
BBX 15 16 -1 -3
BITMAP
0000
0000
0000
0000
0000
0000
01E0
0E70
0C30
0FF0
1800
1CE0
0780
0000
0000
0000
ENDCHAR
STARTCHAR f
ENCODING 102
SWIDTH 625 0
DWIDTH 10 0
BBX 15 16 -1 -3
BITMAP
0000
0000
0000
0078
0198
0180
0180
07C0
0300
0300
0600
0600
0F80
0000
0000
0000
ENDCHAR
STARTCHAR g
ENCODING 103
SWIDTH 625 0
DWIDTH 10 0
BBX 15 16 -1 -3
BITMAP
0000
0000
0000
0000
0000
0000
01F8
0EE0
0C60
0C60
1DC0
07C0
00C0
3180
3180
1F00
ENDCHAR
STARTCHAR h
ENCODING 104
SWIDTH 625 0
DWIDTH 10 0
BBX 15 16 -1 -3
BITMAP
0000
0000
0000
0380
0300
0300
03E0
0760
0660
0660
0CC0
0CC0
1FE0
0000
0000
0000
ENDCHAR
STARTCHAR i
ENCODING 105
SWIDTH 625 0
DWIDTH 10 0
BBX 15 16 -1 -3
BITMAP
0000
0000
0000
0060
0000
0000
03C0
0180
0180
0180
0300
0300
0FC0
0000
0000
0000
ENDCHAR
STARTCHAR j
ENCODING 106
SWIDTH 625 0
DWIDTH 10 0
BBX 15 16 -1 -3
BITMAP
0000
0000
0000
0030
0000
0000
01E0
00C0
00C0
00C0
0180
0180
0180
0300
3300
1E00
ENDCHAR
STARTCHAR k
ENCODING 107
SWIDTH 625 0
DWIDTH 10 0
BBX 15 16 -1 -3
BITMAP
0000
0000
0000
0380
0300
0300
0378
06C0
0780
0780
0D80
0CC0
1FE0
0000
0000
0000
ENDCHAR
STARTCHAR l
ENCODING 108
SWIDTH 625 0
DWIDTH 10 0
BBX 15 16 -1 -3
BITMAP
0000
0000
0000
01E0
00C0
00C0
00C0
0180
0180
0180
0300
0300
0FC0
0000
0000
0000
ENDCHAR
STARTCHAR m
ENCODING 109
SWIDTH 625 0
DWIDTH 10 0
BBX 15 16 -1 -3
BITMAP
0000
0000
0000
0000
0000
0000
0FF8
0FF0
0DB0
0DB0
1B60
1B60
3FF0
0000
0000
0000
ENDCHAR
STARTCHAR n
ENCODING 110
SWIDTH 625 0
DWIDTH 10 0
BBX 15 16 -1 -3
BITMAP
0000
0000
0000
0000
0000
0000
07E0
0760
0660
0660
0CC0
0CC0
1FE0
0000
0000
0000
ENDCHAR
STARTCHAR o
ENCODING 111
SWIDTH 625 0
DWIDTH 10 0
BBX 15 16 -1 -3
BITMAP
0000
0000
0000
0000
0000
0000
01E0
0E70
0C30
0C30
1860
1CE0
0780
0000
0000
0000
ENDCHAR
STARTCHAR p
ENCODING 112
SWIDTH 625 0
DWIDTH 10 0
BBX 15 16 -1 -3
BITMAP
0000
0000
0000
0000
0000
0000
07E0
0770
0630
0630
0C60
0EE0
0F80
1800
1800
3E00
ENDCHAR
STARTCHAR q
ENCODING 113
SWIDTH 625 0
DWIDTH 10 0
BBX 15 16 -1 -3
BITMAP
0000
0000
0000
0000
0000
0000
01F8
0EE0
0C60
0C60
18C0
1DC0
07C0
0180
0180
07C0
ENDCHAR
STARTCHAR r
ENCODING 114
SWIDTH 625 0
DWIDTH 10 0
BBX 15 16 -1 -3
BITMAP
0000
0000
0000
0000
0000
0000
07F8
0398
0300
0300
0600
0600
1F80
0000
0000
0000
ENDCHAR
STARTCHAR s
ENCODING 115
SWIDTH 625 0
DWIDTH 10 0
BBX 15 16 -1 -3
BITMAP
0000
0000
0000
0000
0000
0000
03F0
0C30
0C00
07E0
0060
1860
0FC0
0000
0000
0000
ENDCHAR
STARTCHAR t
ENCODING 116
SWIDTH 625 0
DWIDTH 10 0
BBX 15 16 -1 -3
BITMAP
0000
0000
0000
0000
0180
0180
07F0
0300
0300
0300
0600
0660
03C0
0000
0000
0000
ENDCHAR
STARTCHAR u
ENCODING 117
SWIDTH 625 0
DWIDTH 10 0
BBX 15 16 -1 -3
BITMAP
0000
0000
0000
0000
0000
0000
0770
0660
0660
0660
0CC0
0DC0
07E0
0000
0000
0000
ENDCHAR
STARTCHAR v
ENCODING 118
SWIDTH 625 0
DWIDTH 10 0
BBX 15 16 -1 -3
BITMAP
0000
0000
0000
0000
0000
0000
0F3C
0C30
0660
0660
0780
0780
0300
0000
0000
0000
ENDCHAR
STARTCHAR w
ENCODING 119
SWIDTH 625 0
DWIDTH 10 0
BBX 15 16 -1 -3
BITMAP
0000
0000
0000
0000
0000
0000
0FFC
0DB0
0FF0
0FF0
1FE0
0CC0
0CC0
0000
0000
0000
ENDCHAR
STARTCHAR x
ENCODING 120
SWIDTH 625 0
DWIDTH 10 0
BBX 15 16 -1 -3
BITMAP
0000
0000
0000
0000
0000
0000
07F8
0660
03C0
0180
0780
0CC0
1FE0
0000
0000
0000
ENDCHAR
STARTCHAR y
ENCODING 121
SWIDTH 625 0
DWIDTH 10 0
BBX 15 16 -1 -3
BITMAP
0000
0000
0000
0000
0000
0000
0F3C
0C30
0660
0660
0780
0780
0300
0600
0C00
3800
ENDCHAR
STARTCHAR z
ENCODING 122
SWIDTH 625 0
DWIDTH 10 0
BBX 15 16 -1 -3
BITMAP
0000
0000
0000
0000
0000
0000
07F8
0C60
00C0
0180
0600
0C60
1FE0
0000
0000
0000
ENDCHAR
STARTCHAR braceleft
ENCODING 123
SWIDTH 625 0
DWIDTH 10 0
BBX 15 16 -1 -3
BITMAP
0000
0000
0000
0038
00C0
00C0
00C0
0180
0180
0700
0300
0300
0300
0600
0600
0380
ENDCHAR
STARTCHAR bar
ENCODING 124
SWIDTH 625 0
DWIDTH 10 0
BBX 15 16 -1 -3
BITMAP
0000
0000
0000
0060
00C0
00C0
00C0
0180
0180
0180
0300
0300
0300
0600
0600
0600
ENDCHAR
STARTCHAR braceright
ENCODING 125
SWIDTH 625 0
DWIDTH 10 0
BBX 15 16 -1 -3
BITMAP
0000
0000
0000
00E0
0060
0060
0060
00C0
00C0
0070
0180
0180
0180
0300
0300
0E00
ENDCHAR
STARTCHAR asciitilde
ENCODING 126
SWIDTH 625 0
DWIDTH 10 0
BBX 15 16 -1 -3
BITMAP
0000
0000
0000
01CC
06D8
0670
0000
0000
0000
0000
0000
0000
0000
0000
0000
0000
ENDCHAR
STARTCHAR C177
ENCODING -1
SWIDTH 625 0
DWIDTH 10 0
BBX 15 16 -1 -3
BITMAP
0000
0000
0000
00F0
01E0
01E0
01E0
03C0
03C0
03C0
0780
0780
0780
0000
0000
0000
ENDCHAR
STARTCHAR C200
ENCODING -1
SWIDTH 625 0
DWIDTH 10 0
BBX 15 16 -1 -3
BITMAP
0000
0000
0000
00F0
01E0
01E0
01E0
03C0
03C0
03C0
0780
0780
0780
0000
0000
0000
ENDCHAR
STARTCHAR C201
ENCODING -1
SWIDTH 625 0
DWIDTH 10 0
BBX 15 16 -1 -3
BITMAP
0000
0000
0000
00F0
01E0
01E0
01E0
03C0
03C0
03C0
0780
0780
0780
0000
0000
0000
ENDCHAR
STARTCHAR C202
ENCODING -1
SWIDTH 625 0
DWIDTH 10 0
BBX 15 16 -1 -3
BITMAP
0000
0000
0000
00F0
01E0
01E0
01E0
03C0
03C0
03C0
0780
0780
0780
0000
0000
0000
ENDCHAR
STARTCHAR C203
ENCODING -1
SWIDTH 625 0
DWIDTH 10 0
BBX 15 16 -1 -3
BITMAP
0000
0000
0000
00F0
01E0
01E0
01E0
03C0
03C0
03C0
0780
0780
0780
0000
0000
0000
ENDCHAR
STARTCHAR C204
ENCODING -1
SWIDTH 625 0
DWIDTH 10 0
BBX 15 16 -1 -3
BITMAP
0000
0000
0000
00F0
01E0
01E0
01E0
03C0
03C0
03C0
0780
0780
0780
0000
0000
0000
ENDCHAR
STARTCHAR C205
ENCODING -1
SWIDTH 625 0
DWIDTH 10 0
BBX 15 16 -1 -3
BITMAP
0000
0000
0000
00F0
01E0
01E0
01E0
03C0
03C0
03C0
0780
0780
0780
0000
0000
0000
ENDCHAR
STARTCHAR C206
ENCODING -1
SWIDTH 625 0
DWIDTH 10 0
BBX 15 16 -1 -3
BITMAP
0000
0000
0000
00F0
01E0
01E0
01E0
03C0
03C0
03C0
0780
0780
0780
0000
0000
0000
ENDCHAR
STARTCHAR C207
ENCODING -1
SWIDTH 625 0
DWIDTH 10 0
BBX 15 16 -1 -3
BITMAP
0000
0000
0000
00F0
01E0
01E0
01E0
03C0
03C0
03C0
0780
0780
0780
0000
0000
0000
ENDCHAR
STARTCHAR C210
ENCODING -1
SWIDTH 625 0
DWIDTH 10 0
BBX 15 16 -1 -3
BITMAP
0000
0000
0000
00F0
01E0
01E0
01E0
03C0
03C0
03C0
0780
0780
0780
0000
0000
0000
ENDCHAR
STARTCHAR C211
ENCODING -1
SWIDTH 625 0
DWIDTH 10 0
BBX 15 16 -1 -3
BITMAP
0000
0000
0000
00F0
01E0
01E0
01E0
03C0
03C0
03C0
0780
0780
0780
0000
0000
0000
ENDCHAR
STARTCHAR C212
ENCODING -1
SWIDTH 625 0
DWIDTH 10 0
BBX 15 16 -1 -3
BITMAP
0000
0000
0000
00F0
01E0
01E0
01E0
03C0
03C0
03C0
0780
0780
0780
0000
0000
0000
ENDCHAR
STARTCHAR C213
ENCODING -1
SWIDTH 625 0
DWIDTH 10 0
BBX 15 16 -1 -3
BITMAP
0000
0000
0000
00F0
01E0
01E0
01E0
03C0
03C0
03C0
0780
0780
0780
0000
0000
0000
ENDCHAR
STARTCHAR C214
ENCODING -1
SWIDTH 625 0
DWIDTH 10 0
BBX 15 16 -1 -3
BITMAP
0000
0000
0000
00F0
01E0
01E0
01E0
03C0
03C0
03C0
0780
0780
0780
0000
0000
0000
ENDCHAR
STARTCHAR C215
ENCODING -1
SWIDTH 625 0
DWIDTH 10 0
BBX 15 16 -1 -3
BITMAP
0000
0000
0000
00F0
01E0
01E0
01E0
03C0
03C0
03C0
0780
0780
0780
0000
0000
0000
ENDCHAR
STARTCHAR C216
ENCODING -1
SWIDTH 625 0
DWIDTH 10 0
BBX 15 16 -1 -3
BITMAP
0000
0000
0000
00F0
01E0
01E0
01E0
03C0
03C0
03C0
0780
0780
0780
0000
0000
0000
ENDCHAR
STARTCHAR C217
ENCODING -1
SWIDTH 625 0
DWIDTH 10 0
BBX 15 16 -1 -3
BITMAP
0000
0000
0000
00F0
01E0
01E0
01E0
03C0
03C0
03C0
0780
0780
0780
0000
0000
0000
ENDCHAR
STARTCHAR C220
ENCODING -1
SWIDTH 625 0
DWIDTH 10 0
BBX 15 16 -1 -3
BITMAP
0000
0000
0000
00F0
01E0
01E0
01E0
03C0
03C0
03C0
0780
0780
0780
0000
0000
0000
ENDCHAR
STARTCHAR C221
ENCODING -1
SWIDTH 625 0
DWIDTH 10 0
BBX 15 16 -1 -3
BITMAP
0000
0000
0000
0038
00E0
01E0
0000
0000
0000
0000
0000
0000
0000
0000
0000
0000
ENDCHAR
STARTCHAR C222
ENCODING -1
SWIDTH 625 0
DWIDTH 10 0
BBX 15 16 -1 -3
BITMAP
0000
0000
0000
0078
00E0
01C0
0000
0000
0000
0000
0000
0000
0000
0000
0000
0000
ENDCHAR
STARTCHAR C223
ENCODING -1
SWIDTH 625 0
DWIDTH 10 0
BBX 15 16 -1 -3
BITMAP
0000
0000
0000
00F0
01E0
01E0
01E0
03C0
03C0
03C0
0780
0780
0780
0000
0000
0000
ENDCHAR
STARTCHAR C224
ENCODING -1
SWIDTH 625 0
DWIDTH 10 0
BBX 15 16 -1 -3
BITMAP
0000
0000
0000
00F0
01E0
01E0
01E0
03C0
03C0
03C0
0780
0780
0780
0000
0000
0000
ENDCHAR
STARTCHAR C225
ENCODING -1
SWIDTH 625 0
DWIDTH 10 0
BBX 15 16 -1 -3
BITMAP
0000
0000
0000
00F0
01E0
01E0
01E0
03C0
03C0
03C0
0780
0780
0780
0000
0000
0000
ENDCHAR
STARTCHAR C226
ENCODING -1
SWIDTH 625 0
DWIDTH 10 0
BBX 15 16 -1 -3
BITMAP
0000
0000
0000
00F0
01E0
01E0
01E0
03C0
03C0
03C0
0780
0780
0780
0000
0000
0000
ENDCHAR
STARTCHAR C227
ENCODING -1
SWIDTH 625 0
DWIDTH 10 0
BBX 15 16 -1 -3
BITMAP
0000
0000
0000
00F0
01E0
01E0
01E0
03C0
03C0
03C0
0780
0780
0780
0000
0000
0000
ENDCHAR
STARTCHAR C230
ENCODING -1
SWIDTH 625 0
DWIDTH 10 0
BBX 15 16 -1 -3
BITMAP
0000
0000
0000
00F0
01E0
01E0
01E0
03C0
03C0
03C0
0780
0780
0780
0000
0000
0000
ENDCHAR
STARTCHAR C231
ENCODING -1
SWIDTH 625 0
DWIDTH 10 0
BBX 15 16 -1 -3
BITMAP
0000
0000
0000
00F0
01E0
01E0
01E0
03C0
03C0
03C0
0780
0780
0780
0000
0000
0000
ENDCHAR
STARTCHAR C232
ENCODING -1
SWIDTH 625 0
DWIDTH 10 0
BBX 15 16 -1 -3
BITMAP
0000
0000
0000
00F0
01E0
01E0
01E0
03C0
03C0
03C0
0780
0780
0780
0000
0000
0000
ENDCHAR
STARTCHAR C233
ENCODING -1
SWIDTH 625 0
DWIDTH 10 0
BBX 15 16 -1 -3
BITMAP
0000
0000
0000
00F0
01E0
01E0
01E0
03C0
03C0
03C0
0780
0780
0780
0000
0000
0000
ENDCHAR
STARTCHAR C234
ENCODING 176
SWIDTH 625 0
DWIDTH 10 0
BBX 15 16 -1 -3
BITMAP
0000
0000
0000
00F0
01E0
01E0
01E0
03C0
03C0
03C0
0780
0780
0780
0000
0000
0000
ENDCHAR
STARTCHAR C235
ENCODING 178
SWIDTH 625 0
DWIDTH 10 0
BBX 15 16 -1 -3
BITMAP
0000
0000
0000
00F0
01E0
01E0
01E0
03C0
03C0
03C0
0780
0780
0780
0000
0000
0000
ENDCHAR
STARTCHAR C236
ENCODING -1
SWIDTH 625 0
DWIDTH 10 0
BBX 15 16 -1 -3
BITMAP
0000
0000
0000
00F0
01E0
01E0
01E0
03C0
03C0
03C0
0780
0780
0780
0000
0000
0000
ENDCHAR
STARTCHAR C237
ENCODING -1
SWIDTH 625 0
DWIDTH 10 0
BBX 15 16 -1 -3
BITMAP
0000
0000
0000
00F0
01E0
01E0
01E0
03C0
03C0
03C0
0780
0780
0780
0000
0000
0000
ENDCHAR
STARTCHAR C240
ENCODING 160
SWIDTH 625 0
DWIDTH 10 0
BBX 15 16 -1 -3
BITMAP
0000
0000
0000
0000
0000
0000
0000
0000
0000
0000
0000
0000
0000
0000
0000
0000
ENDCHAR
STARTCHAR exclamdown
ENCODING 161
SWIDTH 625 0
DWIDTH 10 0
BBX 15 16 -1 -3
BITMAP
0000
01F8
0000
03FC
0318
0300
0360
07C0
06C0
0600
0C00
0C60
1FE0
0000
0000
0000
ENDCHAR
STARTCHAR cent
ENCODING 162
SWIDTH 625 0
DWIDTH 10 0
BBX 15 16 -1 -3
BITMAP
0000
0000
0000
0000
0060
0060
00F0
0730
0600
0600
0C00
0E60
03C0
0300
0300
0000
ENDCHAR
STARTCHAR sterling
ENCODING 163
SWIDTH 625 0
DWIDTH 10 0
BBX 15 16 -1 -3
BITMAP
0000
0000
0000
00F0
0330
0330
0300
0300
07C0
0300
0600
0600
0FE0
0000
0000
0000
ENDCHAR
STARTCHAR currency
ENCODING 164
SWIDTH 625 0
DWIDTH 10 0
BBX 15 16 -1 -3
BITMAP
0000
0000
0000
018C
01F0
01B0
01B0
03E0
0630
0000
0000
0000
0000
0000
0000
0000
ENDCHAR
STARTCHAR yen
ENCODING 165
SWIDTH 625 0
DWIDTH 10 0
BBX 15 16 -1 -3
BITMAP
0000
0000
0000
079E
0618
0330
0F3C
03C0
1FF8
0180
0300
0300
0780
0000
0000
0000
ENDCHAR
STARTCHAR brokenbar
ENCODING 166
SWIDTH 625 0
DWIDTH 10 0
BBX 15 16 -1 -3
BITMAP
0000
0000
0000
0060
00C0
00C0
00C0
0180
0000
0000
0000
0300
0300
0600
0600
0600
ENDCHAR
STARTCHAR section
ENCODING 167
SWIDTH 625 0
DWIDTH 10 0
BBX 15 16 -1 -3
BITMAP
0000
0000
0000
00FC
0318
0380
06C0
0CC0
0660
0330
0360
01C0
18C0
3F00
0000
0000
ENDCHAR
STARTCHAR dieresis
ENCODING 168
SWIDTH 625 0
DWIDTH 10 0
BBX 15 16 -1 -3
BITMAP
0000
0000
0000
00D8
0000
0000
0000
0000
0000
0000
0000
0000
0000
0000
0000
0000
ENDCHAR
STARTCHAR copyright
ENCODING 191
SWIDTH 625 0
DWIDTH 10 0
BBX 15 16 -1 -3
BITMAP
0000
0000
00F8
018C
06EC
07BC
078C
0F18
0F78
0DD8
0C60
07C0
0000
0000
0000
0000
ENDCHAR
STARTCHAR ordfeminine
ENCODING 170
SWIDTH 625 0
DWIDTH 10 0
BBX 15 16 -1 -3
BITMAP
0000
0000
0000
00F0
0030
01F0
0330
0660
03F0
0000
0FC0
0000
0000
0000
0000
0000
ENDCHAR
STARTCHAR guillemotleft
ENCODING 171
SWIDTH 625 0
DWIDTH 10 0
BBX 15 16 -1 -3
BITMAP
0000
0000
0000
0000
0000
00D8
01B0
06C0
0D80
06C0
06C0
0360
0000
0000
0000
0000
ENDCHAR
STARTCHAR logicalnot
ENCODING 172
SWIDTH 625 0
DWIDTH 10 0
BBX 15 16 -1 -3
BITMAP
0000
0000
0000
0000
0000
0000
0000
0FF0
0030
0030
0060
0000
0000
0000
0000
0000
ENDCHAR
STARTCHAR hyphen
ENCODING 173
SWIDTH 625 0
DWIDTH 10 0
BBX 15 16 -1 -3
BITMAP
0000
0000
0000
0000
0000
0000
0000
0000
07F0
0000
0000
0000
0000
0000
0000
0000
ENDCHAR
STARTCHAR registered
ENCODING 174
SWIDTH 625 0
DWIDTH 10 0
BBX 15 16 -1 -3
BITMAP
0000
0000
00F8
018C
07EC
07BC
07BC
0FD8
0F78
0F78
0C60
07C0
0000
0000
0000
0000
ENDCHAR
STARTCHAR macron
ENCODING 175
SWIDTH 625 0
DWIDTH 10 0
BBX 15 16 -1 -3
BITMAP
0000
07FE
0000
0000
0000
0000
0000
0000
0000
0000
0000
0000
0000
0000
0000
0000
ENDCHAR
STARTCHAR degree
ENCODING 156
SWIDTH 625 0
DWIDTH 10 0
BBX 15 16 -1 -3
BITMAP
0000
0000
0000
0070
01B0
01B0
00E0
0000
0000
0000
0000
0000
0000
0000
0000
0000
ENDCHAR
STARTCHAR plusminus
ENCODING 177
SWIDTH 625 0
DWIDTH 10 0
BBX 15 16 -1 -3
BITMAP
0000
0000
0000
0000
00C0
00C0
00C0
0FF0
0180
0180
0300
0000
1FE0
0000
0000
0000
ENDCHAR
STARTCHAR twosuperior
ENCODING 157
SWIDTH 625 0
DWIDTH 10 0
BBX 15 16 -1 -3
BITMAP
0000
0000
0000
0070
01B0
0030
0060
0180
03E0
0000
0000
0000
0000
0000
0000
0000
ENDCHAR
STARTCHAR threesuperior
ENCODING 179
SWIDTH 625 0
DWIDTH 10 0
BBX 15 16 -1 -3
BITMAP
0000
0000
0000
0070
01B0
0060
0030
0360
01C0
0000
0000
0000
0000
0000
0000
0000
ENDCHAR
STARTCHAR acute
ENCODING 180
SWIDTH 625 0
DWIDTH 10 0
BBX 15 16 -1 -3
BITMAP
0000
0000
0000
0030
00C0
0000
0000
0000
0000
0000
0000
0000
0000
0000
0000
0000
ENDCHAR
STARTCHAR mu
ENCODING 181
SWIDTH 625 0
DWIDTH 10 0
BBX 15 16 -1 -3
BITMAP
0000
0000
0000
0000
0000
0318
0318
0630
0630
0630
0C60
0C60
0FF0
1800
1800
3000
ENDCHAR
STARTCHAR paragraph
ENCODING 182
SWIDTH 625 0
DWIDTH 10 0
BBX 15 16 -1 -3
BITMAP
0000
0000
0000
01FE
07F8
07F8
07F8
0FF0
07F0
00F0
01E0
01E0
03F0
0000
0000
0000
ENDCHAR
STARTCHAR periodcentered
ENCODING 183
SWIDTH 625 0
DWIDTH 10 0
BBX 15 16 -1 -3
BITMAP
0000
0000
0000
0000
0000
0000
0000
01C0
01C0
0000
0000
0000
0000
0000
0000
0000
ENDCHAR
STARTCHAR cedilla
ENCODING 184
SWIDTH 625 0
DWIDTH 10 0
BBX 15 16 -1 -3
BITMAP
0000
0000
0000
0000
0000
0000
0000
0000
0000
0000
0000
0000
0000
0600
0300
0E00
ENDCHAR
STARTCHAR onesuperior
ENCODING 185
SWIDTH 625 0
DWIDTH 10 0
BBX 15 16 -1 -3
BITMAP
0000
0000
0000
0060
01C0
00C0
00C0
0180
03C0
0000
0000
0000
0000
0000
0000
0000
ENDCHAR
STARTCHAR ordmasculine
ENCODING 186
SWIDTH 625 0
DWIDTH 10 0
BBX 15 16 -1 -3
BITMAP
0000
0000
0000
00F0
0330
0330
0330
0660
03C0
0000
0FC0
0000
0000
0000
0000
0000
ENDCHAR
STARTCHAR guillemotright
ENCODING 187
SWIDTH 625 0
DWIDTH 10 0
BBX 15 16 -1 -3
BITMAP
0000
0000
0000
0000
0000
06C0
0360
0360
01B0
0360
0D80
1B00
0000
0000
0000
0000
ENDCHAR
STARTCHAR onequarter
ENCODING 188
SWIDTH 625 0
DWIDTH 10 0
BBX 15 16 -1 -3
BITMAP
0000
0000
0000
0180
070C
0318
0330
06F0
07F0
03F0
0F60
1BF0
0060
0000
0000
0000
ENDCHAR
STARTCHAR onehalf
ENCODING 189
SWIDTH 625 0
DWIDTH 10 0
BBX 15 16 -1 -3
BITMAP
0000
0000
0000
0180
070C
0318
0330
06F0
07D8
0318
0C60
18C0
01F0
0000
0000
0000
ENDCHAR
STARTCHAR threequarters
ENCODING 190
SWIDTH 625 0
DWIDTH 10 0
BBX 15 16 -1 -3
BITMAP
0000
0000
0000
01C0
06CC
0198
00F0
0DF0
07F0
03F0
0F60
1BF0
0060
0000
0000
0000
ENDCHAR
STARTCHAR questiondown
ENCODING 169
SWIDTH 625 0
DWIDTH 10 0
BBX 15 16 -1 -3
BITMAP
0000
0000
0000
0000
03F0
0000
01E0
0E70
0C30
0FF0
1800
1CE0
0780
0000
0000
0000
ENDCHAR
STARTCHAR cyr-A
ENCODING 225
SWIDTH 625 0
DWIDTH 10 0
BBX 15 16 -1 -3
BITMAP
0000
0000
0000
0060
00C0
01E0
01E0
0660
0660
07E0
1860
1860
3CF0
0000
0000
0000
ENDCHAR
STARTCHAR cyr-Be
ENCODING 226
SWIDTH 625 0
DWIDTH 10 0
BBX 15 16 -1 -3
BITMAP
0000
0000
0000
03FC
0318
0300
0300
07E0
0630
0630
0C60
0C60
1FC0
0000
0000
0000
ENDCHAR
STARTCHAR cyr-Ve
ENCODING 247
SWIDTH 625 0
DWIDTH 10 0
BBX 15 16 -1 -3
BITMAP
0000
0000
0000
03F8
0318
0318
0318
07E0
0630
0630
0C60
0C60
1FC0
0000
0000
0000
ENDCHAR
STARTCHAR cyr-Ghe
ENCODING 231
SWIDTH 625 0
DWIDTH 10 0
BBX 15 16 -1 -3
BITMAP
0000
0000
0000
03FC
0318
0300
0300
0600
0600
0600
0C00
0C00
1E00
0000
0000
0000
ENDCHAR
STARTCHAR cyr-De
ENCODING 228
SWIDTH 625 0
DWIDTH 10 0
BBX 15 16 -1 -3
BITMAP
0000
0000
0000
01FE
0198
0198
0198
0330
0330
0330
0660
0C60
1FF0
3060
3060
0000
ENDCHAR
STARTCHAR cyr-Ie
ENCODING 229
SWIDTH 625 0
DWIDTH 10 0
BBX 15 16 -1 -3
BITMAP
0000
0000
0000
03FC
0318
0300
0360
07C0
06C0
0600
0C00
0C60
1FE0
0000
0000
0000
ENDCHAR
STARTCHAR cyr-Zhe
ENCODING 246
SWIDTH 625 0
DWIDTH 10 0
BBX 15 16 -1 -3
BITMAP
0000
0000
0000
076E
06D8
06D8
03F0
03C0
07E0
07E0
1B60
1B60
3B70
0000
0000
0000
ENDCHAR
STARTCHAR cyr-Ze
ENCODING 250
SWIDTH 625 0
DWIDTH 10 0
BBX 15 16 -1 -3
BITMAP
0000
0000
0000
03F8
0718
0618
0018
03E0
0030
0030
0060
1860
0FC0
0000
0000
0000
ENDCHAR
STARTCHAR cyr-I
ENCODING 233
SWIDTH 625 0
DWIDTH 10 0
BBX 15 16 -1 -3
BITMAP
0000
0000
0000
079E
0618
0618
0638
0CF0
0DB0
0F30
1C60
1860
3CF0
0000
0000
0000
ENDCHAR
STARTCHAR cyr-I-short
ENCODING 234
SWIDTH 625 0
DWIDTH 10 0
BBX 15 16 -1 -3
BITMAP
0000
01F8
00F0
079E
0618
0618
0638
0CF0
0DB0
0F30
1C60
1860
3CF0
0000
0000
0000
ENDCHAR
STARTCHAR cyr-Ka
ENCODING 235
SWIDTH 625 0
DWIDTH 10 0
BBX 15 16 -1 -3
BITMAP
0000
0000
0000
03FC
0330
0360
0360
0780
0780
06C0
0CC0
0C60
1E70
0000
0000
0000
ENDCHAR
STARTCHAR cyr-El
ENCODING 236
SWIDTH 625 0
DWIDTH 10 0
BBX 15 16 -1 -3
BITMAP
0000
0000
0000
03FE
0318
0318
0318
0630
0630
0630
0C60
0C60
38F0
0000
0000
0000
ENDCHAR
STARTCHAR cyr-Em
ENCODING 237
SWIDTH 625 0
DWIDTH 10 0
BBX 15 16 -1 -3
BITMAP
0000
0000
0000
070E
0618
0738
0738
0FF0
0FF0
0DB0
1B60
1860
3CF0
0000
0000
0000
ENDCHAR
STARTCHAR cyr-En
ENCODING 238
SWIDTH 625 0
DWIDTH 10 0
BBX 15 16 -1 -3
BITMAP
0000
0000
0000
079E
0618
0618
0618
0FF0
0C30
0C30
1860
1860
3CF0
0000
0000
0000
ENDCHAR
STARTCHAR cyr-O
ENCODING 239
SWIDTH 625 0
DWIDTH 10 0
BBX 15 16 -1 -3
BITMAP
0000
0000
0000
00F0
0330
0618
0618
0C30
0C30
0C30
1860
0CC0
0780
0000
0000
0000
ENDCHAR
STARTCHAR cyr-Pe
ENCODING 240
SWIDTH 625 0
DWIDTH 10 0
BBX 15 16 -1 -3
BITMAP
0000
0000
0000
07FE
0618
0618
0618
0C30
0C30
0C30
1860
1860
3CF0
0000
0000
0000
ENDCHAR
STARTCHAR cyr-Er
ENCODING 242
SWIDTH 625 0
DWIDTH 10 0
BBX 15 16 -1 -3
BITMAP
0000
0000
0000
03F8
0318
0318
0318
0630
07E0
0600
0C00
0C00
1F00
0000
0000
0000
ENDCHAR
STARTCHAR cyr-Es
ENCODING 243
SWIDTH 625 0
DWIDTH 10 0
BBX 15 16 -1 -3
BITMAP
0000
0000
0000
00FC
0338
0618
0618
0C00
0C00
0C00
1800
0C60
07C0
0000
0000
0000
ENDCHAR
STARTCHAR cyr-Te
ENCODING 244
SWIDTH 625 0
DWIDTH 10 0
BBX 15 16 -1 -3
BITMAP
0000
0000
0000
07FE
08CC
00C0
00C0
0180
0180
0180
0300
0300
0FC0
0000
0000
0000
ENDCHAR
STARTCHAR cyr-U
ENCODING 245
SWIDTH 625 0
DWIDTH 10 0
BBX 15 16 -1 -3
BITMAP
0000
0000
0000
079E
0618
0618
0330
0660
03C0
03C0
0300
1B00
0E00
0000
0000
0000
ENDCHAR
STARTCHAR cyr-Ef
ENCODING 230
SWIDTH 625 0
DWIDTH 10 0
BBX 15 16 -1 -3
BITMAP
0000
00F0
0060
01F8
06D8
08CC
08CC
1198
1198
0DB0
0FC0
0300
0780
0000
0000
0000
ENDCHAR
STARTCHAR cyr-Kha
ENCODING 232
SWIDTH 625 0
DWIDTH 10 0
BBX 15 16 -1 -3
BITMAP
0000
0000
0000
079E
0618
0330
01E0
0180
0180
03C0
0CC0
1860
3CF0
0000
0000
0000
ENDCHAR
STARTCHAR cyr-Tse
ENCODING 227
SWIDTH 625 0
DWIDTH 10 0
BBX 15 16 -1 -3
BITMAP
0000
0000
0000
079E
0618
0618
0618
0C30
0C30
0C30
1860
1860
3FF0
0060
0060
0000
ENDCHAR
STARTCHAR cyr-Che
ENCODING 254
SWIDTH 625 0
DWIDTH 10 0
BBX 15 16 -1 -3
BITMAP
0000
0000
0000
079E
0618
0618
0618
0C30
0C70
07F0
0060
0060
00F0
0000
0000
0000
ENDCHAR
STARTCHAR cyr-Sha
ENCODING 251
SWIDTH 625 0
DWIDTH 10 0
BBX 15 16 -1 -3
BITMAP
0000
0000
0000
07FE
06D8
06D8
06D8
0DB0
0DB0
0DB0
1B60
1B60
3FF0
0000
0000
0000
ENDCHAR
STARTCHAR cyr-Shcha
ENCODING 253
SWIDTH 625 0
DWIDTH 10 0
BBX 15 16 -1 -3
BITMAP
0000
0000
0000
07FE
06D8
06D8
06D8
0DB0
0DB0
0DB0
1B60
1B60
3FF0
0060
0060
0000
ENDCHAR
STARTCHAR cyr-Ier
ENCODING 255
SWIDTH 625 0
DWIDTH 10 0
BBX 15 16 -1 -3
BITMAP
0000
0000
0000
03E0
0780
0780
0180
03F0
0318
0318
0630
0630
0FE0
0000
0000
0000
ENDCHAR
STARTCHAR cyr-Iery
ENCODING 249
SWIDTH 625 0
DWIDTH 10 0
BBX 15 16 -1 -3
BITMAP
0000
0000
0000
079E
0618
0618
0618
0FB0
0CF0
0CF0
19E0
19E0
3FF0
0000
0000
0000
ENDCHAR
STARTCHAR cyr-Ierik
ENCODING 248
SWIDTH 625 0
DWIDTH 10 0
BBX 15 16 -1 -3
BITMAP
0000
0000
0000
03C0
0300
0300
0300
07E0
0630
0630
0C60
0C60
1FC0
0000
0000
0000
ENDCHAR
STARTCHAR cyr-E-rev
ENCODING 252
SWIDTH 625 0
DWIDTH 10 0
BBX 15 16 -1 -3
BITMAP
0000
0000
0000
00F0
0330
0618
0018
03F0
0030
0030
1860
0CC0
0780
0000
0000
0000
ENDCHAR
STARTCHAR cyr-Yu
ENCODING 224
SWIDTH 625 0
DWIDTH 10 0
BBX 15 16 -1 -3
BITMAP
0000
0000
0000
07BC
06CC
06CC
06CC
0F98
0D98
0D98
1B30
1B30
3DE0
0000
0000
0000
ENDCHAR
STARTCHAR cyr-Ya
ENCODING 241
SWIDTH 625 0
DWIDTH 10 0
BBX 15 16 -1 -3
BITMAP
0000
0000
0000
00FE
0318
0318
0318
0630
03F0
01B0
0660
0C60
1CF0
0000
0000
0000
ENDCHAR
STARTCHAR cyr-a
ENCODING 193
SWIDTH 625 0
DWIDTH 10 0
BBX 15 16 -1 -3
BITMAP
0000
0000
0000
0000
0000
0000
03E0
0060
07E0
0C60
18C0
18C0
0FE0
0000
0000
0000
ENDCHAR
STARTCHAR cyr-be
ENCODING 194
SWIDTH 625 0
DWIDTH 10 0
BBX 15 16 -1 -3
BITMAP
0000
0000
0000
001C
01E0
0300
03F0
0730
0630
0630
0C60
0C60
07C0
0000
0000
0000
ENDCHAR
STARTCHAR cyr-ve
ENCODING 215
SWIDTH 625 0
DWIDTH 10 0
BBX 15 16 -1 -3
BITMAP
0000
0000
0000
0000
0000
0000
07F0
0630
0630
07E0
0C60
0C60
1FC0
0000
0000
0000
ENDCHAR
STARTCHAR cyr-ghe
ENCODING 199
SWIDTH 625 0
DWIDTH 10 0
BBX 15 16 -1 -3
BITMAP
0000
0000
0000
0000
0000
0000
07F8
0630
0600
0600
0C00
0C00
1E00
0000
0000
0000
ENDCHAR
STARTCHAR cyr-de
ENCODING 196
SWIDTH 625 0
DWIDTH 10 0
BBX 15 16 -1 -3
BITMAP
0000
0000
0000
0000
0000
0000
03FC
0330
0330
0330
0660
0C60
1FF0
3060
3060
0000
ENDCHAR
STARTCHAR cyr-ie
ENCODING 197
SWIDTH 625 0
DWIDTH 10 0
BBX 15 16 -1 -3
BITMAP
0000
0000
0000
0000
0000
0000
01E0
0E70
0C30
0FF0
1800
1CE0
0780
0000
0000
0000
ENDCHAR
STARTCHAR cyr-zhe
ENCODING 214
SWIDTH 625 0
DWIDTH 10 0
BBX 15 16 -1 -3
BITMAP
0000
0000
0000
0000
0000
0000
0EDC
0DB0
07E0
03C0
0FC0
1B60
3B70
0000
0000
0000
ENDCHAR
STARTCHAR cyr-z
ENCODING 218
SWIDTH 625 0
DWIDTH 10 0
BBX 15 16 -1 -3
BITMAP
0000
0000
0000
0000
0000
0000
07F0
0C30
0030
03E0
0060
1860
0FC0
0000
0000
0000
ENDCHAR
STARTCHAR cyr-i
ENCODING 201
SWIDTH 625 0
DWIDTH 10 0
BBX 15 16 -1 -3
BITMAP
0000
0000
0000
0000
0000
0000
07BC
0630
0670
06F0
0F60
0E60
1EF0
0000
0000
0000
ENDCHAR
STARTCHAR cyr-i-short
ENCODING 202
SWIDTH 625 0
DWIDTH 10 0
BBX 15 16 -1 -3
BITMAP
0000
0000
0000
00D8
00E0
0000
07BC
0630
0670
06F0
0F60
0E60
1EF0
0000
0000
0000
ENDCHAR
STARTCHAR cyr-ka
ENCODING 203
SWIDTH 625 0
DWIDTH 10 0
BBX 15 16 -1 -3
BITMAP
0000
0000
0000
0000
0000
0000
07F8
06C0
0780
0780
0D80
0CC0
1FE0
0000
0000
0000
ENDCHAR
STARTCHAR cyr-el
ENCODING 204
SWIDTH 625 0
DWIDTH 10 0
BBX 15 16 -1 -3
BITMAP
0000
0000
0000
0000
0000
0000
03FC
0330
0330
0330
0660
0660
1CF0
0000
0000
0000
ENDCHAR
STARTCHAR cyr-em
ENCODING 205
SWIDTH 625 0
DWIDTH 10 0
BBX 15 16 -1 -3
BITMAP
0000
0000
0000
0000
0000
0000
0E1C
0E70
0FF0
0DB0
1B60
1860
3CF0
0000
0000
0000
ENDCHAR
STARTCHAR cyr-en
ENCODING 206
SWIDTH 625 0
DWIDTH 10 0
BBX 15 16 -1 -3
BITMAP
0000
0000
0000
0000
0000
0000
07BC
0630
0630
07F0
0C60
0C60
1EF0
0000
0000
0000
ENDCHAR
STARTCHAR cyr-o
ENCODING 207
SWIDTH 625 0
DWIDTH 10 0
BBX 15 16 -1 -3
BITMAP
0000
0000
0000
0000
0000
0000
01E0
0E70
0C30
0C30
1860
1CE0
0780
0000
0000
0000
ENDCHAR
STARTCHAR cyr-pe
ENCODING 208
SWIDTH 625 0
DWIDTH 10 0
BBX 15 16 -1 -3
BITMAP
0000
0000
0000
0000
0000
0000
07FC
0630
0630
0630
0C60
0C60
1EF0
0000
0000
0000
ENDCHAR
STARTCHAR cyr-er
ENCODING 210
SWIDTH 625 0
DWIDTH 10 0
BBX 15 16 -1 -3
BITMAP
0000
0000
0000
0000
0000
0000
07E0
0770
0630
0630
0C60
0EE0
0F80
1800
1800
3E00
ENDCHAR
STARTCHAR cyr-es
ENCODING 211
SWIDTH 625 0
DWIDTH 10 0
BBX 15 16 -1 -3
BITMAP
0000
0000
0000
0000
0000
0000
01F8
0E70
0C00
0C00
1800
1CE0
0780
0000
0000
0000
ENDCHAR
STARTCHAR cyr-te
ENCODING 212
SWIDTH 625 0
DWIDTH 10 0
BBX 15 16 -1 -3
BITMAP
0000
0000
0000
0000
0000
0000
07F8
0DB0
0180
0180
0300
0300
0780
0000
0000
0000
ENDCHAR
STARTCHAR cyr-u
ENCODING 213
SWIDTH 625 0
DWIDTH 10 0
BBX 15 16 -1 -3
BITMAP
0000
0000
0000
0000
0000
0000
0F3C
0C30
0660
0660
0780
0780
0300
0600
0C00
3800
ENDCHAR
STARTCHAR cyr-ef
ENCODING 198
SWIDTH 625 0
DWIDTH 10 0
BBX 15 16 -1 -3
BITMAP
0000
0000
0000
0000
01E0
00C0
03F0
0DB0
0DB0
0DB0
1B60
1B60
0FC0
0600
0600
0F00
ENDCHAR
STARTCHAR cyr-kha
ENCODING 200
SWIDTH 625 0
DWIDTH 10 0
BBX 15 16 -1 -3
BITMAP
0000
0000
0000
0000
0000
0000
07F8
0660
03C0
0180
0780
0CC0
1FE0
0000
0000
0000
ENDCHAR
STARTCHAR cyr-tse
ENCODING 195
SWIDTH 625 0
DWIDTH 10 0
BBX 15 16 -1 -3
BITMAP
0000
0000
0000
0000
0000
0000
07BC
0630
0630
0630
0C60
0C60
1FF0
0060
0060
0000
ENDCHAR
STARTCHAR cyr-che
ENCODING 222
SWIDTH 625 0
DWIDTH 10 0
BBX 15 16 -1 -3
BITMAP
0000
0000
0000
0000
0000
0000
07BC
0630
0630
0670
07E0
0060
00F0
0000
0000
0000
ENDCHAR
STARTCHAR cyr-sha
ENCODING 219
SWIDTH 625 0
DWIDTH 10 0
BBX 15 16 -1 -3
BITMAP
0000
0000
0000
0000
0000
0000
0FFC
0DB0
0DB0
0DB0
1B60
1B60
3FF0
0000
0000
0000
ENDCHAR
STARTCHAR cyr-shcha
ENCODING 221
SWIDTH 625 0
DWIDTH 10 0
BBX 15 16 -1 -3
BITMAP
0000
0000
0000
0000
0000
0000
0FFC
0DB0
0DB0
0DB0
1B60
1B60
3FF0
0060
0060
0000
ENDCHAR
STARTCHAR cyr-ier
ENCODING 223
SWIDTH 625 0
DWIDTH 10 0
BBX 15 16 -1 -3
BITMAP
0000
0000
0000
0000
0000
0000
07C0
0F00
03F0
0318
0630
0630
0FE0
0000
0000
0000
ENDCHAR
STARTCHAR cyr-iery
ENCODING 217
SWIDTH 625 0
DWIDTH 10 0
BBX 15 16 -1 -3
BITMAP
0000
0000
0000
0000
0000
0000
0F3C
0C30
0FB0
0CF0
19E0
19E0
3FF0
0000
0000
0000
ENDCHAR
STARTCHAR cyr-ierik
ENCODING 216
SWIDTH 625 0
DWIDTH 10 0
BBX 15 16 -1 -3
BITMAP
0000
0000
0000
0000
0000
0000
0780
0600
07E0
0630
0C60
0C60
1FC0
0000
0000
0000
ENDCHAR
STARTCHAR cyr-e-rev
ENCODING 220
SWIDTH 625 0
DWIDTH 10 0
BBX 15 16 -1 -3
BITMAP
0000
0000
0000
0000
0000
0000
03F0
0C30
0030
03F0
0060
1860
0FC0
0000
0000
0000
ENDCHAR
STARTCHAR cyr-yu
ENCODING 192
SWIDTH 625 0
DWIDTH 10 0
BBX 15 16 -1 -3
BITMAP
0000
0000
0000
0000
0000
0000
0F78
0D98
0D98
0F98
1B30
1B30
3DE0
0000
0000
0000
ENDCHAR
STARTCHAR cyr-ya
ENCODING 209
SWIDTH 625 0
DWIDTH 10 0
BBX 15 16 -1 -3
BITMAP
0000
0000
0000
0000
0000
0000
01FC
0630
0630
03F0
0660
0C60
1CF0
0000
0000
0000
ENDCHAR
ENDFONT
